<svg xmlns="http://www.w3.org/2000/svg" width="153.174" height="76.893" viewBox="0 0 153.174 76.893"><defs><style>.a{fill:#040505;}</style></defs><g transform="translate(-64.472 -31.914)"><g transform="translate(116.922 31.914)"><path class="a" d="M135.827,79.658a19.466,19.466,0,1,1,13.639-33.363l6.3-6.3a28.287,28.287,0,1,0,.114,40.261l-6.3-6.3A19.348,19.348,0,0,1,135.827,79.658Z" transform="translate(-107.677 -31.914)"/><path class="a" d="M133.242,64.57a6.984,6.984,0,1,1,4.8-12.054l4.6-4.6a13.476,13.476,0,1,0,.129,19.194l-4.6-4.6A6.932,6.932,0,0,1,133.242,64.57Z" transform="translate(-105.092 -29.308)"/></g><g transform="translate(64.472 95.525)"><g transform="translate(0 0)"><path class="a" d="M70.643,85.136a4.841,4.841,0,0,0-3.814,1.556,6.142,6.142,0,0,0-1.4,4.256,6.375,6.375,0,0,0,1.315,4.284A4.692,4.692,0,0,0,70.5,96.761a10.424,10.424,0,0,0,2.985-.414v.8a9.737,9.737,0,0,1-3.186.442,5.39,5.39,0,0,1-4.27-1.757,7.1,7.1,0,0,1-1.558-4.9,7.662,7.662,0,0,1,.743-3.471,5.424,5.424,0,0,1,2.143-2.314,6.33,6.33,0,0,1,3.256-.813,7.732,7.732,0,0,1,3.37.7l-.385.8A6.481,6.481,0,0,0,70.643,85.136Z" transform="translate(-64.472 -84.307)"/><path class="a" d="M82.277,92.825H77.036l-1.8,4.556h-1l5.184-12.939h.572l5.084,12.939h-1Zm-4.913-.813h4.613l-1.757-4.642c-.143-.37-.329-.87-.528-1.514a13.686,13.686,0,0,1-.515,1.528Z" transform="translate(-62.382 -84.284)"/><path class="a" d="M93.43,94.078a3.113,3.113,0,0,1-1.186,2.557,4.914,4.914,0,0,1-3.156.943,10.033,10.033,0,0,1-3.627-.515v-.9a9.08,9.08,0,0,0,3.556.585,3.958,3.958,0,0,0,2.514-.728,2.315,2.315,0,0,0,.929-1.913,2.167,2.167,0,0,0-.314-1.214,2.785,2.785,0,0,0-1-.872,12.792,12.792,0,0,0-2.042-.857,7.024,7.024,0,0,1-2.728-1.47,2.935,2.935,0,0,1-.758-2.1,2.856,2.856,0,0,1,1.129-2.356,4.47,4.47,0,0,1,2.914-.914,8.557,8.557,0,0,1,3.413.686l-.328.771a8.059,8.059,0,0,0-3.07-.671,3.556,3.556,0,0,0-2.271.657,2.144,2.144,0,0,0-.843,1.8,2.357,2.357,0,0,0,.257,1.17,2.387,2.387,0,0,0,.857.829,11.082,11.082,0,0,0,2.027.87,11,11,0,0,1,2.271,1.015,3.256,3.256,0,0,1,1.1,1.113A2.97,2.97,0,0,1,93.43,94.078Z" transform="translate(-59.981 -84.309)"/><path class="a" d="M103.018,94.078a3.113,3.113,0,0,1-1.186,2.557,4.914,4.914,0,0,1-3.156.943,10.033,10.033,0,0,1-3.627-.515v-.9a9.08,9.08,0,0,0,3.556.585,3.958,3.958,0,0,0,2.514-.728,2.315,2.315,0,0,0,.929-1.913,2.166,2.166,0,0,0-.314-1.214,2.785,2.785,0,0,0-1-.872,12.792,12.792,0,0,0-2.042-.857,7.024,7.024,0,0,1-2.728-1.47,2.935,2.935,0,0,1-.758-2.1,2.856,2.856,0,0,1,1.129-2.356,4.47,4.47,0,0,1,2.914-.914,8.556,8.556,0,0,1,3.413.686l-.328.771a8.059,8.059,0,0,0-3.07-.671,3.556,3.556,0,0,0-2.271.657,2.144,2.144,0,0,0-.843,1.8,2.357,2.357,0,0,0,.257,1.17,2.387,2.387,0,0,0,.857.829,11.082,11.082,0,0,0,2.027.87,11,11,0,0,1,2.271,1.015,3.256,3.256,0,0,1,1.1,1.113A2.97,2.97,0,0,1,103.018,94.078Z" transform="translate(-57.929 -84.309)"/><path class="a" d="M116.3,90.939a7.242,7.242,0,0,1-1.528,4.856,5.9,5.9,0,0,1-8.454,0,7.187,7.187,0,0,1-1.528-4.871,7.088,7.088,0,0,1,1.543-4.841,5.93,5.93,0,0,1,8.454,0A7.22,7.22,0,0,1,116.3,90.939Zm-10.54,0a6.678,6.678,0,0,0,1.229,4.284,4.934,4.934,0,0,0,7.1.015,6.648,6.648,0,0,0,1.227-4.3,6.566,6.566,0,0,0-1.227-4.271,4.951,4.951,0,0,0-7.085.015A6.493,6.493,0,0,0,105.76,90.939Z" transform="translate(-55.845 -84.312)"/><path class="a" d="M126.15,84.477h.985l-4.827,12.9h-.8l-4.812-12.9h.957l3.241,8.769a31.164,31.164,0,0,1,1,2.985,20.666,20.666,0,0,1,.7-2.056Z" transform="translate(-53.297 -84.277)"/><path class="a" d="M128.271,97.362v-12.9h.9v12.9Z" transform="translate(-50.82 -84.279)"/><path class="a" d="M140.041,92.825H134.8L133,97.381h-1l5.185-12.939h.571l5.084,12.939h-1.014Zm-4.913-.813h4.612l-1.757-4.642c-.142-.37-.328-.87-.528-1.514a13.448,13.448,0,0,1-.514,1.528Z" transform="translate(-50.022 -84.284)"/><path class="a" d="M154.9,85.136a4.84,4.84,0,0,0-3.813,1.556,6.142,6.142,0,0,0-1.4,4.256A6.375,6.375,0,0,0,151,95.233a4.692,4.692,0,0,0,3.756,1.528,10.424,10.424,0,0,0,2.985-.414v.8a9.737,9.737,0,0,1-3.186.442,5.394,5.394,0,0,1-4.271-1.757,7.173,7.173,0,0,1-1.556-4.9,7.662,7.662,0,0,1,.743-3.471,5.424,5.424,0,0,1,2.143-2.314,6.33,6.33,0,0,1,3.256-.813,7.732,7.732,0,0,1,3.37.7l-.357.815A6.557,6.557,0,0,0,154.9,85.136Z" transform="translate(-46.442 -84.307)"/><path class="a" d="M170.958,90.939A7.248,7.248,0,0,1,169.43,95.8a5.9,5.9,0,0,1-8.455,0,7.187,7.187,0,0,1-1.527-4.871,7.088,7.088,0,0,1,1.542-4.841,5.931,5.931,0,0,1,8.455,0A7.3,7.3,0,0,1,170.958,90.939Zm-10.54,0a6.685,6.685,0,0,0,1.227,4.284,4.934,4.934,0,0,0,7.1.015,6.641,6.641,0,0,0,1.229-4.3,6.56,6.56,0,0,0-1.229-4.271,4.95,4.95,0,0,0-7.084.015A6.493,6.493,0,0,0,160.418,90.939Z" transform="translate(-44.148 -84.312)"/><path class="a" d="M182.642,90.8a6.623,6.623,0,0,1-1.7,4.913,6.841,6.841,0,0,1-5,1.656h-3.085v-12.9h3.485a5.642,5.642,0,0,1,6.3,6.327Zm-.971.028a5.706,5.706,0,0,0-1.4-4.17,5.639,5.639,0,0,0-4.128-1.4h-2.371v11.3H175.9Q181.662,96.582,181.67,90.832Z" transform="translate(-41.278 -84.277)"/><path class="a" d="M191.887,97.362h-7.041v-12.9h7.041v.829h-6.142v4.869h5.8v.829h-5.8v5.526h6.142Z" transform="translate(-38.713 -84.279)"/></g></g></g></svg>