<svg xmlns="http://www.w3.org/2000/svg" width="15.394" height="15.391" viewBox="0 0 15.394 15.391"><defs><style>.a{fill:#fefefe;}</style></defs><path class="a" d="M7.624,35.574a3.946,3.946,0,1,0,3.946,3.946A3.94,3.94,0,0,0,7.624,35.574Zm0,6.512a2.565,2.565,0,1,1,2.565-2.565,2.57,2.57,0,0,1-2.565,2.565Zm5.028-6.673a.92.92,0,1,1-.92-.92A.918.918,0,0,1,12.652,35.413Zm2.614.934a4.555,4.555,0,0,0-1.243-3.225A4.585,4.585,0,0,0,10.8,31.879c-1.271-.072-5.079-.072-6.35,0a4.578,4.578,0,0,0-3.225,1.24A4.57,4.57,0,0,0-.021,36.344c-.072,1.271-.072,5.079,0,6.35a4.555,4.555,0,0,0,1.243,3.225,4.591,4.591,0,0,0,3.225,1.243c1.271.072,5.079.072,6.35,0a4.555,4.555,0,0,0,3.225-1.243,4.585,4.585,0,0,0,1.243-3.225C15.337,41.423,15.337,37.618,15.265,36.347Zm-1.642,7.71a2.6,2.6,0,0,1-1.463,1.463,16.962,16.962,0,0,1-4.537.309,17.094,17.094,0,0,1-4.537-.309,2.6,2.6,0,0,1-1.463-1.463,16.962,16.962,0,0,1-.309-4.537,17.094,17.094,0,0,1,.309-4.537,2.6,2.6,0,0,1,1.463-1.463,16.962,16.962,0,0,1,4.537-.309,17.094,17.094,0,0,1,4.537.309,2.6,2.6,0,0,1,1.463,1.463,16.962,16.962,0,0,1,.309,4.537A16.952,16.952,0,0,1,13.624,44.057Z" transform="translate(0.075 -31.825)"/></svg>