<svg xmlns="http://www.w3.org/2000/svg" width="34" height="34" viewBox="0 0 34 34">
  <g id="Group_18" data-name="Group 18" transform="translate(-1169 -65)">
    <circle id="Ellipse_13" data-name="Ellipse 13" cx="13" cy="13" r="13" transform="translate(1169 73)"/>
    <g id="baseline-local_grocery_store-24px" transform="translate(1173 78)">
      <path id="Path_3" data-name="Path 3" d="M5.5,14A1.5,1.5,0,1,0,7,15.5,1.5,1.5,0,0,0,5.5,14ZM1,2V3.5H2.5L5.2,9.193,4.188,11.03A1.45,1.45,0,0,0,4,11.75a1.5,1.5,0,0,0,1.5,1.5h9v-1.5H5.815a.186.186,0,0,1-.187-.187l.023-.09.675-1.222h5.588a1.493,1.493,0,0,0,1.312-.773L15.91,4.61A.733.733,0,0,0,16,4.25a.752.752,0,0,0-.75-.75H4.158L3.452,2H1ZM13,14a1.5,1.5,0,1,0,1.5,1.5A1.5,1.5,0,0,0,13,14Z" transform="translate(-0.25 -0.5)" fill="#fefefe"/>
      <path id="Path_4" data-name="Path 4" d="M0,0H18V18H0Z" fill="none"/>
    </g>
    <g id="Ellipse_17" data-name="Ellipse 17" transform="translate(1187 65)" fill="#67bf30" stroke="#fff" stroke-width="1">
      <circle cx="8" cy="8" r="8" stroke="none"/>
      <circle cx="8" cy="8" r="7.5" fill="none"/>
    </g>
    <text id="_3" data-name="3" transform="translate(1191 77)" fill="#fff" font-size="11" font-family="SegoeUI, Segoe UI" letter-spacing="0.01em"><tspan x="0" y="0">3</tspan></text>
  </g>
</svg>
