<svg xmlns="http://www.w3.org/2000/svg" width="26" height="26" viewBox="0 0 26 26">
  <g id="Group_17" data-name="Group 17" transform="translate(-1135 -73)">
    <circle id="Ellipse_14" data-name="Ellipse 14" cx="13" cy="13" r="13" transform="translate(1135 73)"/>
    <g id="Group_11" data-name="Group 11" transform="translate(1142 79.143)">
      <path id="user-solid" d="M6,6.857A3.429,3.429,0,1,0,2.571,3.429,3.428,3.428,0,0,0,6,6.857Zm2.4.857H7.953a4.663,4.663,0,0,1-3.905,0H3.6a3.6,3.6,0,0,0-3.6,3.6v1.114a1.286,1.286,0,0,0,1.286,1.286h9.429A1.286,1.286,0,0,0,12,12.429V11.314A3.6,3.6,0,0,0,8.4,7.714Z" fill="#fefefe"/>
    </g>
  </g>
</svg>
